<svg width="200" height="200" viewBox="0 0 64 64" xmlns="http://www.w3.org/2000/svg" role="img" aria-labelledby="title">
  <title id="title">Globe with red location pin</title>
  <!-- Globe background -->
  <defs>
    <linearGradient id="globeGrad" x1="0" y1="0" x2="0" y2="1">
      <stop offset="0%" stop-color="#bfe8ff"/>
      <stop offset="100%" stop-color="#7fd0ff"/>
    </linearGradient>
  </defs>

  <!-- Outer globe circle -->
  <circle cx="28" cy="32" r="20" fill="url(#globeGrad)" stroke="#225a84" stroke-width="2"/>

  <!-- Latitudes -->
  <ellipse cx="28" cy="32" rx="16" ry="8" fill="none" stroke="#2d6f9e" stroke-width="1"/>
  <ellipse cx="28" cy="26" rx="13" ry="6.5" fill="none" stroke="#2d6f9e" stroke-width="1" opacity="0.85"/>
  <ellipse cx="28" cy="38" rx="13" ry="6.5" fill="none" stroke="#2d6f9e" stroke-width="1" opacity="0.85"/>

  <!-- Meridians -->
  <path d="M28 12a26 26 0 0 1 0 40" fill="none" stroke="#2d6f9e" stroke-width="1"/>
  <path d="M28 12a26 26 0 0 0 0 40" fill="none" stroke="#2d6f9e" stroke-width="1" opacity="0.85"/>

  <!-- Simple land masses (stylized) -->
  <path d="M19 24c3-2 6-3 8-3 2 0 3 1 3 2 0 2-3 3-5 4-3 2-4 3-4 5 0 1 0 2 1 3" fill="#64b77a" stroke="#3b7f52" stroke-width="1" opacity="0.9"/>
  <path d="M33 40c2 0 4 1 6 2 2 1 3 2 3 3 0 2-3 3-6 3-4 0-7-2-7-4 0-2 2-4 4-4z" fill="#64b77a" stroke="#3b7f52" stroke-width="1" opacity="0.9"/>

  <!-- Location pin (red) -->
  <g transform="translate(0,0)">
    <!-- Drop shadow -->
    <ellipse cx="44" cy="50" rx="4.5" ry="1.5" fill="rgba(0,0,0,0.25)"/>
    <!-- Pin body -->
    <path d="M44 33c-3.314 0-6 2.686-6 6 0 4.5 6 11 6 11s6-6.5 6-11c0-3.314-2.686-6-6-6z" fill="#e53935" stroke="#b01512" stroke-width="1"/>
    <!-- Pin center -->
    <circle cx="44" cy="39" r="2.8" fill="#ffffff"/>
    <!-- Specular highlight -->
    <circle cx="42.8" cy="37.8" r="0.8" fill="#ffffff" opacity="0.8"/>
  </g>
</svg>
